<?xml version="1.0" encoding="utf-8"?>
<svg xmlns="http://www.w3.org/2000/svg" width="926.8000000000001" height="418.40000000000003" xmlns:bx="https://boxy-svg.com">
  <defs>
    <bx:export>
      <bx:file format="svg"/>
      <bx:file format="png" href="#object-0"/>
    </bx:export>
  </defs>
  <g transform="scale(.4)" id="object-0">
    <path d="M 194,65 C 198,40 189,45 183,62 166,109 149,154 134,201 129,216 127,226 127,242 130,338 119,433 102,525 97,560 91,593 122,536 141,499 154,462 167,423 181,380 186,334 188,289 191,213 187,141 194,65 L 194,65 " transform="translate(2122, 157)" style="fill: rgb(121, 125, 131);"/>
    <path d="M 116,103 C 91,134 70,158 53,173 37,188 24,194 0,190 L 0,271 C 34,277 68,231 92,203 116,175 140,145 167,119 178,110 188,102 200,93 207,88 215,82 220,74 233,51 238,36 239,17 240,2 235,-5 220,6 203,19 183,28 162,25 143,22 123,19 99,12 62,0 33,-12 4,23 -9,38 -21,59 -32,78 -48,109 -34,107 -16,85 20,43 74,68 111,84 130,92 129,88 116,103 L 116,103 " transform="translate(1945, 357)" style="fill: rgb(121, 125, 131);"/>
    <path d="M -73,108 C -73,113 -70,117 -64,122 L -40,137 C -17,153 -3,161 1,161 10,161 21,150 36,128 51,106 59,88 59,73 59,57 51,41 35,25 19,8 2,0 -15,0 -20,0 -31,16 -48,47 -65,78 -73,99 -73,108 L -73,108 " fill="#cc4345" transform="translate(2065, 0)"/>
    <path d="M 248,-143 C 270,-166 266,-208 248,-224 213,-230 196,-217 176,-186 141,-133 78,-116 32,-158 11,-178 0,-211 0,-258 L -59,-148 C -61,-79 -31,5 49,-1 109,-6 143,-52 181,-116 199,-147 213,-149 248,-143 L 248,-143 " transform="translate(1697, 771)" style="fill: rgb(121, 125, 131);"/>
    <path d="M -73,-53 C -73,-48 -70,-44 -64,-40 -56,-35 -48,-29 -40,-24 -17,-8 -3,0 1,0 10,0 21,-11 36,-34 51,-56 59,-74 59,-89 59,-105 51,-121 35,-138 19,-154 2,-162 -15,-162 -20,-162 -31,-146 -48,-115 -65,-84 -73,-63 -73,-53 L -73,-53 " fill="#cc4345" transform="translate(1748, 1044)"/>
    <path d="M 156,521 C 160,415 174,288 196,172 203,134 190,156 183,172 167,204 155,234 147,255 141,272 136,291 133,311 112,466 97,567 97,631 115,631 147,575 156,521 L 156,521 " transform="translate(1541, -8)" style="fill: rgb(121, 125, 131);"/>
    <path d="M 266,-1 C 269,-33 256,-31 245,-4 224,50 214,112 184,166 160,210 124,252 74,289 39,316 17,335 6,346 -2,355 -3,368 16,365 37,362 72,350 124,329 180,306 201,269 227,180 251,91 263,31 266,-1 L 266,-1 " transform="translate(1329, 436)" style="fill: rgb(121, 125, 131);"/>
    <path d="M 194,65 C 198,40 189,45 183,62 166,109 149,154 134,201 129,216 127,226 127,242 130,338 119,433 102,525 97,560 91,593 122,536 141,499 154,462 167,423 181,380 186,334 188,289 191,213 187,141 194,65 L 194,65 " transform="translate(1097, 159)" style="fill: rgb(121, 125, 131);"/>
    <path d="M 219,1 C 227,-34 217,-29 201,-6 173,32 147,54 104,71 49,92 29,145 9,198 -3,228 -14,255 -41,279 -84,315 -129,350 -178,379 -225,407 -227,418 -167,409 -39,388 -11,356 25,244 43,189 77,165 128,146 183,126 205,60 219,1 L 219,1 " transform="translate(921, 387)" style="fill: rgb(121, 125, 131);"/>
    <path d="M -139,-52 C -139,-49 -128,-40 -105,-23 -98,-18 -92,-13 -86,-8 -78,-3 -72,0 -68,0 -53,0 -32,-24 -5,-71 6,-64 19,-54 36,-39 47,-28 56,-23 61,-23 69,-23 82,-34 99,-57 117,-80 126,-99 126,-116 126,-130 117,-145 99,-162 82,-177 68,-185 56,-185 53,-185 44,-174 30,-153 19,-138 9,-123 0,-108 -6,-119 -17,-131 -34,-143 -51,-155 -63,-161 -71,-161 -76,-161 -88,-144 -108,-111 -129,-77 -139,-57 -139,-52 L -139,-52 " fill="#cc4345" transform="translate(1014, 1043)"/>
    <path d="M 194,65 C 198,40 189,45 183,62 166,109 149,154 134,201 129,216 127,226 127,242 130,338 119,433 102,525 97,560 91,593 122,536 141,499 154,462 167,423 181,380 186,334 188,289 191,213 187,141 194,65 L 194,65 " transform="translate(573, 159)" style="fill: rgb(121, 125, 131);"/>
    <path d="M 419 389 C 517 338 582 248 623 149 C 664 50 682 -56 688 -140 C 692 -181 696 -220 703 -259 C 704 -270 702 -274 697 -272 C 693 -271 678 -245 651 -193 C 636 -155 627 -122 626 -94 L 624 7 C 623 50 612 87 591 119 C 523 222 432 274 315 274 C 62 258 166 38 232 -105 C 241 -122 245 -151 218 -110 C 130 23 98 136 98 228 C 98 431 287 458 419 389" transform="translate(-98, 622)" style="fill: rgb(121, 125, 131);"/>
    <path d="M 250.597 613.44 C 250.597 618.443 253.597 622.443 259.597 626.443 C 267.597 631.443 275.597 637.443 283.597 642.443 C 306.597 658.443 320.597 666.443 324.597 666.443 C 333.597 666.443 344.597 655.443 359.597 632.443 C 374.597 610.44 382.597 592.44 382.597 577.44 C 382.597 561.44 374.597 545.44 358.597 528.44 C 342.597 512.44 325.597 504.44 308.597 504.44 C 303.597 504.44 292.597 520.44 275.597 551.44 C 258.597 582.44 250.597 603.44 250.597 613.44" fill="#cc4345" style="stroke-width: 1;"/>
  </g>
</svg>